<?xml version="1.0" standalone="no"?>
<!DOCTYPE svg PUBLIC "-//W3C//DTD SVG 20010904//EN"
 "http://www.w3.org/TR/2001/REC-SVG-20010904/DTD/svg10.dtd">
<svg version="1.0" xmlns="http://www.w3.org/2000/svg"
 width="700.000000pt" height="700.000000pt" viewBox="0 0 700.000000 700.000000"
 preserveAspectRatio="xMidYMid meet">
<metadata>
Created by potrace 1.14, written by Peter Selinger 2001-2017
</metadata>
<g transform="translate(0.000000,700.000000) scale(0.100000,-0.100000)"
fill="#000000" stroke="none">
<path d="M3267 6524 c-1 -1 -40 -5 -87 -8 -483 -35 -938 -161 -1303 -361 -56
-30 -111 -61 -122 -68 -280 -174 -510 -372 -709 -607 -39 -47 -74 -89 -79 -95
-4 -5 -21 -28 -38 -50 -115 -148 -277 -418 -382 -636 -57 -119 -167 -380 -167
-397 0 -5 -8 -27 -17 -48 -9 -22 -17 -41 -18 -44 -1 -3 -14 -45 -30 -95 -16
-49 -30 -94 -31 -100 -2 -5 -17 -59 -34 -120 -31 -107 -83 -320 -94 -380 -3
-16 -8 -41 -11 -55 -22 -109 -40 -208 -55 -315 -7 -44 -14 -87 -15 -96 -2 -9
-6 -38 -9 -65 -3 -27 -10 -87 -16 -134 -5 -47 -12 -116 -16 -155 -3 -38 -7
-86 -9 -105 -17 -139 -27 -681 -13 -750 38 -198 213 -416 468 -581 122 -79
127 -82 283 -160 137 -69 340 -150 517 -207 214 -69 515 -143 740 -182 30 -6
66 -12 80 -15 20 -4 170 -26 335 -49 17 -3 62 -8 100 -11 39 -4 77 -9 86 -10
9 -2 61 -6 115 -10 55 -4 115 -9 134 -11 228 -24 1016 -24 1250 0 19 2 73 7
120 11 47 3 103 8 125 11 22 2 63 6 90 9 28 3 66 8 85 10 19 3 55 7 80 10 25
3 70 10 100 15 30 5 71 11 90 14 40 6 243 42 280 50 14 3 34 8 45 10 231 48
669 172 760 215 11 6 52 22 90 36 109 42 360 167 460 230 268 169 429 345 503
550 24 66 25 82 25 270 1 180 -6 374 -18 510 -19 226 -20 235 -46 435 -19 148
-23 177 -33 227 -3 11 -8 43 -12 70 -9 61 -12 81 -18 101 -3 9 -7 35 -11 57
-3 22 -7 47 -10 55 -2 8 -6 26 -9 40 -27 154 -143 559 -218 758 -292 786 -699
1336 -1280 1730 -26 18 -49 32 -52 32 -3 0 -24 13 -48 29 -57 39 -254 139
-353 181 -129 53 -202 78 -347 120 -117 33 -179 48 -313 76 -47 9 -225 34
-290 39 -38 3 -92 9 -120 12 -47 5 -523 12 -528 7z"/>
</g>
</svg>
