<?xml version="1.0" standalone="no"?>
<!DOCTYPE svg PUBLIC "-//W3C//DTD SVG 20010904//EN"
 "http://www.w3.org/TR/2001/REC-SVG-20010904/DTD/svg10.dtd">
<svg version="1.0" xmlns="http://www.w3.org/2000/svg"
 width="700.000000pt" height="700.000000pt" viewBox="0 0 700.000000 700.000000"
 preserveAspectRatio="xMidYMid meet">
<metadata>
Created by potrace 1.14, written by Peter Selinger 2001-2017
</metadata>
<g transform="translate(0.000000,700.000000) scale(0.100000,-0.100000)"
fill="#000000" stroke="none">
<path d="M3465 6591 c-38 -53 -102 -141 -142 -196 -40 -55 -237 -325 -436
-600 l-363 -500 -595 -5 c-589 -5 -595 -5 -650 -28 -159 -64 -269 -194 -299
-351 -6 -32 -10 -264 -10 -581 l0 -528 -64 -22 c-268 -95 -438 -429 -438 -860
0 -304 85 -547 249 -707 57 -56 157 -117 210 -128 18 -3 35 -10 37 -13 2 -4 7
-43 10 -87 45 -530 364 -992 841 -1220 100 -48 248 -97 340 -114 33 -6 71 -14
85 -18 14 -4 563 -8 1220 -10 1293 -2 1286 -2 1486 52 144 39 269 96 404 183
85 55 223 166 270 219 246 273 374 561 405 913 4 41 9 78 11 81 2 4 18 9 35
13 86 17 226 125 297 228 109 159 165 367 164 608 -1 291 -72 530 -206 691
-62 74 -165 148 -243 173 l-53 18 0 536 c0 577 -1 581 -54 697 -31 69 -123
163 -194 199 -108 55 -122 56 -697 57 l-530 0 -500 690 c-275 380 -504 694
-510 699 -6 5 -37 -29 -80 -89z"/>
</g>
</svg>
